<svg xmlns="http://www.w3.org/2000/svg" width="1em" height="1em" viewBox="0 0 24 24"><path fill="#4285f4" fill-rule="evenodd" d="m14.68 13.06l4.55 2.63v.99l-4.94-2.85z"/><path fill="#669df6" fill-rule="evenodd" d="m9.98 13.65l-5.21 3.01l-.32-.8l5.08-2.94z"/><path fill="#aecbfa" d="M11.55 3.29h.86v5.78h-.86z"/><path fill="#aecbfa" fill-rule="evenodd" d="M3.25 7v10L12 22l8.74-5V7L12 2Zm15.63 8.89L12 19.78l-6.88-3.89V8.11L12 4.22l6.87 3.89v7.78Z"/><path fill="#aecbfa" fill-rule="evenodd" d="m11.98 11.5l3.98-2.29l-3.98-2.3l-3.97 2.3z"/><path fill="#669df6" fill-rule="evenodd" d="m11.52 12.3l-3.86-2.29v4.59l3.86 2.29z"/><path fill="#4285f4" fill-rule="evenodd" d="M12.48 12.3v4.59l3.86-2.29v-4.59z"/></svg>